<?xml version="1.0" encoding="utf-8"?>
<!-- Generator: Adobe Illustrator 16.0.0, SVG Export Plug-In . SVG Version: 6.00 Build 0)  -->
<!DOCTYPE svg PUBLIC "-//W3C//DTD SVG 1.1//EN" "http://www.w3.org/Graphics/SVG/1.1/DTD/svg11.dtd">
<svg version="1.1" id="Ebene_1" xmlns="http://www.w3.org/2000/svg" xmlns:xlink="http://www.w3.org/1999/xlink" x="0px" y="0px"
	 width="511px" height="511px" viewBox="0 0 511 511" enable-background="new 0 0 511 511" xml:space="preserve">
<rect y="0" fill="#A3A3A3" width="511" height="511"/>
<path fill="#FFFFFF" d="M387.844,201.036c-0.619-14.047-2.891-23.706-6.146-32.074c-3.356-8.883-8.521-16.836-15.288-23.448
	c-6.611-6.714-14.616-11.932-23.397-15.236c-8.417-3.253-18.024-5.525-32.071-6.145c-14.153-0.673-18.646-0.828-54.542-0.828
	c-35.895,0-40.388,0.155-54.488,0.774c-14.048,0.619-23.705,2.893-32.072,6.146c-8.885,3.356-16.838,8.522-23.449,15.288
	c-6.715,6.611-11.93,14.617-15.237,23.397c-3.254,8.418-5.526,18.024-6.145,32.072c-0.672,14.153-0.827,18.646-0.827,54.542
	c0,35.895,0.155,40.388,0.775,54.488c0.619,14.048,2.894,23.706,6.147,32.074c3.357,8.883,8.572,16.836,15.287,23.447
	c6.611,6.715,14.617,11.932,23.397,15.236c8.419,3.254,18.024,5.526,32.075,6.146c14.098,0.62,18.593,0.774,54.489,0.774
	s40.389-0.154,54.487-0.774c14.049-0.619,23.706-2.892,32.073-6.146c17.768-6.869,31.815-20.918,38.686-38.684
	c3.252-8.42,5.526-18.026,6.146-32.074c0.619-14.101,0.774-18.594,0.774-54.488C388.517,219.63,388.464,215.137,387.844,201.036z
	 M364.035,308.98c-0.569,12.912-2.737,19.886-4.545,24.533c-4.442,11.519-13.584,20.66-25.102,25.103
	c-4.648,1.808-11.672,3.976-24.533,4.542c-13.945,0.622-18.128,0.775-53.403,0.775c-35.276,0-39.511-0.153-53.406-0.775
	c-12.912-0.566-19.884-2.734-24.533-4.542c-5.731-2.119-10.949-5.476-15.184-9.866c-4.39-4.287-7.748-9.451-9.866-15.184
	c-1.808-4.648-3.977-11.674-4.543-24.532c-0.621-13.945-0.775-18.13-0.775-53.406c0-35.276,0.153-39.511,0.775-53.403
	c0.567-12.912,2.736-19.885,4.543-24.533c2.119-5.734,5.476-10.949,9.918-15.186c4.285-4.39,9.45-7.747,15.184-9.863
	c4.648-1.807,11.674-3.977,24.533-4.545c13.945-0.62,18.129-0.774,53.404-0.774c35.328,0,39.51,0.155,53.405,0.774
	c12.912,0.569,19.884,2.738,24.532,4.545c5.732,2.117,10.949,5.473,15.184,9.863c4.391,4.287,7.748,9.452,9.866,15.186
	c1.808,4.648,3.977,11.672,4.545,24.533c0.619,13.945,0.774,18.127,0.774,53.403C364.81,290.904,364.655,295.035,364.035,308.98z"/>
<path fill="#FFFFFF" d="M256.399,187.608c-37.495,0-67.917,30.42-67.917,67.917c0,37.497,30.422,67.917,67.917,67.917
	c37.498,0,67.918-30.42,67.918-67.917C324.317,218.028,293.897,187.608,256.399,187.608z M256.399,299.58
	c-24.325,0-44.056-19.729-44.056-44.055s19.731-44.057,44.056-44.057c24.328,0,44.057,19.73,44.057,44.057
	S280.728,299.58,256.399,299.58z"/>
<path fill="#FFFFFF" d="M342.86,184.923c0,8.756-7.1,15.855-15.857,15.855c-8.757,0-15.855-7.1-15.855-15.855
	c0-8.758,7.099-15.856,15.855-15.856C335.761,169.067,342.86,176.164,342.86,184.923z"/>
</svg>
