<?xml version="1.0" encoding="utf-8"?>
<!-- Generator: Adobe Illustrator 16.0.0, SVG Export Plug-In . SVG Version: 6.00 Build 0)  -->
<!DOCTYPE svg PUBLIC "-//W3C//DTD SVG 1.1//EN" "http://www.w3.org/Graphics/SVG/1.1/DTD/svg11.dtd">
<svg version="1.1" id="Ebene_1" xmlns="http://www.w3.org/2000/svg" xmlns:xlink="http://www.w3.org/1999/xlink" x="0px" y="0px"
	 width="511px" height="511px" viewBox="0 0 511 511" enable-background="new 0 0 511 511" xml:space="preserve">
<g>
	<path fill="#A3A3A3" d="M359.489,177.692c-2.118-5.733-5.476-10.898-9.866-15.186c-4.234-4.391-9.452-7.746-15.184-9.863
		c-4.648-1.807-11.621-3.976-24.532-4.545c-13.896-0.619-18.077-0.774-53.405-0.774c-35.275,0-39.459,0.154-53.404,0.774
		c-12.859,0.568-19.885,2.738-24.533,4.545c-5.734,2.116-10.899,5.473-15.184,9.863c-4.442,4.237-7.799,9.452-9.918,15.186
		c-1.807,4.648-3.976,11.621-4.543,24.533c-0.622,13.893-0.775,18.127-0.775,53.403c0,35.275,0.154,39.461,0.775,53.405
		c0.566,12.858,2.735,19.885,4.543,24.532c2.118,5.733,5.476,10.897,9.866,15.185c4.235,4.39,9.453,7.746,15.184,9.865
		c4.649,1.809,11.621,3.977,24.533,4.542c13.895,0.622,18.13,0.775,53.406,0.775c35.274,0,39.458-0.153,53.403-0.775
		c12.86-0.565,19.885-2.733,24.533-4.542c11.518-4.442,20.659-13.584,25.102-25.103c1.808-4.647,3.976-11.621,4.545-24.533
		c0.62-13.944,0.775-18.076,0.773-53.352c0-35.276-0.156-39.458-0.774-53.403C363.466,189.364,361.297,182.34,359.489,177.692z
		 M256.398,323.442c-37.495,0-67.917-30.42-67.917-67.917s30.422-67.917,67.917-67.917c37.498,0,67.918,30.42,67.918,67.917
		S293.896,323.442,256.398,323.442z M327.003,200.778c-8.757,0-15.854-7.1-15.854-15.854c0-8.758,7.099-15.856,15.854-15.856
		c8.758,0,15.856,7.098,15.856,15.856C342.859,193.679,335.76,200.778,327.003,200.778z"/>
	<path fill="#A3A3A3" d="M256.398,211.468c-24.324,0-44.056,19.731-44.056,44.057c0,24.326,19.731,44.055,44.056,44.055
		c24.33,0,44.058-19.728,44.058-44.055S280.727,211.468,256.398,211.468z"/>
	<path fill="#A3A3A3" d="M0,0v511h511V0H0z M387.744,310.011c-0.62,14.048-2.895,23.653-6.146,32.074
		c-6.871,17.766-20.918,31.814-38.686,38.684c-8.367,3.254-18.023,5.527-32.073,6.146c-14.098,0.62-18.591,0.774-54.487,0.774
		c-35.896,0-40.391-0.154-54.488-0.774c-14.051-0.619-23.656-2.892-32.075-6.146c-8.78-3.304-16.786-8.521-23.397-15.236
		c-6.715-6.61-11.93-14.563-15.287-23.446c-3.253-8.368-5.528-18.026-6.147-32.074c-0.62-14.1-0.775-18.593-0.775-54.488
		s0.155-40.389,0.827-54.542c0.619-14.048,2.891-23.653,6.146-32.071c3.307-8.78,8.521-16.786,15.237-23.397
		c6.611-6.766,14.564-11.932,23.449-15.288c8.367-3.253,18.024-5.527,32.072-6.146c14.1-0.619,18.593-0.774,54.488-0.774
		s40.389,0.155,54.541,0.828c14.048,0.62,23.654,2.892,32.072,6.145c8.78,3.305,16.785,8.522,23.396,15.236
		c6.767,6.612,11.932,14.565,15.288,23.448c3.255,8.368,5.526,18.026,6.146,32.074c0.62,14.101,0.674,18.594,0.674,54.486
		C388.518,291.417,388.363,295.91,387.744,310.011z"/>
</g>
</svg>
