<?xml version="1.0" encoding="utf-8"?>
<!-- Generator: Adobe Illustrator 16.0.0, SVG Export Plug-In . SVG Version: 6.00 Build 0)  -->
<!DOCTYPE svg PUBLIC "-//W3C//DTD SVG 1.1//EN" "http://www.w3.org/Graphics/SVG/1.1/DTD/svg11.dtd">
<svg version="1.1" id="Ebene_1" xmlns="http://www.w3.org/2000/svg" xmlns:xlink="http://www.w3.org/1999/xlink" x="0px" y="0px"
	 width="511px" height="511px" viewBox="0 0 511 511" enable-background="new 0 0 511 511" xml:space="preserve">
<path fill="#A3A3A3" d="M510.5,150.236c-1.197-27.151-5.588-45.818-11.878-61.992c-6.488-17.169-16.471-32.541-29.549-45.319
	c-12.778-12.977-28.251-23.061-45.222-29.448c-16.268-6.289-34.837-10.68-61.988-11.877C334.51,0.3,325.825,0,256.447,0
	c-69.377,0-78.062,0.3-105.314,1.497c-27.151,1.197-45.817,5.592-61.988,11.878c-17.173,6.488-32.544,16.471-45.322,29.549
	C30.845,55.702,20.765,71.175,14.374,88.146c-6.29,16.271-10.681,34.837-11.877,61.988c-1.299,27.354-1.599,36.038-1.599,105.416
	s0.3,78.062,1.498,105.314c1.197,27.151,5.592,45.817,11.881,61.992c6.489,17.169,16.568,32.54,29.546,45.318
	c12.778,12.978,28.251,23.062,45.221,29.448c16.272,6.29,34.837,10.681,61.993,11.878c27.249,1.2,35.937,1.497,105.314,1.497
	c69.379,0,78.063-0.297,105.314-1.497c27.152-1.197,45.818-5.588,61.989-11.878c34.342-13.277,61.493-40.429,74.771-74.767
	c6.286-16.272,10.681-34.841,11.878-61.992c1.196-27.253,1.497-35.937,1.497-105.314S511.697,177.489,510.5,150.236z
	 M464.483,358.867c-1.1,24.956-5.291,38.433-8.785,47.417c-8.587,22.262-26.255,39.93-48.517,48.516
	c-8.984,3.494-22.558,7.686-47.416,8.781c-26.953,1.201-35.036,1.498-103.217,1.498s-76.365-0.297-103.221-1.498
	c-24.956-1.096-38.432-5.287-47.416-8.781c-11.078-4.094-21.162-10.583-29.347-19.067c-8.485-8.286-14.974-18.269-19.068-29.347
	c-3.494-8.984-7.686-22.563-8.781-47.417c-1.201-26.952-1.498-35.04-1.498-103.221s0.296-76.365,1.498-103.216
	c1.096-24.956,5.288-38.433,8.781-47.417c4.095-11.082,10.583-21.162,19.169-29.351c8.282-8.485,18.265-14.974,29.347-19.064
	c8.984-3.493,22.562-7.686,47.417-8.785c26.953-1.197,35.04-1.497,103.217-1.497c68.282,0,76.365,0.3,103.221,1.497
	c24.956,1.1,38.432,5.292,47.416,8.785c11.078,4.091,21.162,10.579,29.347,19.064c8.485,8.286,14.974,18.269,19.068,29.351
	c3.494,8.984,7.686,22.558,8.785,47.417c1.197,26.952,1.497,35.035,1.497,103.216S465.681,331.915,464.483,358.867z"/>
<path fill="#A3A3A3" d="M256.447,124.281c-72.47,0-131.269,58.795-131.269,131.269s58.799,131.269,131.269,131.269
	c72.475,0,131.27-58.795,131.27-131.269S328.922,124.281,256.447,124.281z M256.447,340.7c-47.015,0-85.15-38.132-85.15-85.15
	s38.136-85.151,85.15-85.151c47.02,0,85.151,38.133,85.151,85.151S303.467,340.7,256.447,340.7z"/>
<path fill="#A3A3A3" d="M423.556,119.091c0,16.923-13.722,30.646-30.649,30.646c-16.924,0-30.645-13.723-30.645-30.646
	c0-16.928,13.721-30.646,30.645-30.646C409.834,88.446,423.556,102.163,423.556,119.091z"/>
</svg>
