<?xml version="1.0" encoding="utf-8"?>
<!-- Generator: Adobe Illustrator 16.0.0, SVG Export Plug-In . SVG Version: 6.00 Build 0)  -->
<!DOCTYPE svg PUBLIC "-//W3C//DTD SVG 1.1//EN" "http://www.w3.org/Graphics/SVG/1.1/DTD/svg11.dtd">
<svg version="1.1" id="Ebene_1" xmlns="http://www.w3.org/2000/svg" xmlns:xlink="http://www.w3.org/1999/xlink" x="0px" y="0px"
	 width="512px" height="512px" viewBox="0 0 512 512" enable-background="new 0 0 512 512" xml:space="preserve">
<path fill="#A3A3A3" d="M224.113,303.961L307.387,256l-83.273-47.961V303.961z"/>
<path fill="#A3A3A3" d="M475.074,0H36.926C16.531,0,0,16.531,0,36.926v438.148C0,495.469,16.531,512,36.926,512h438.148
	C495.469,512,512,495.469,512,475.074V36.926C512,16.531,495.469,0,475.074,0z M415.961,256.262c0,0,0,51.918-6.586,76.953
	c-3.691,13.703-14.496,24.508-28.199,28.195C356.141,368,256,368,256,368s-99.879,0-125.176-6.852
	c-13.703-3.688-24.508-14.496-28.199-28.199c-6.59-24.77-6.59-76.949-6.59-76.949s0-51.914,6.59-76.949
	c3.688-13.703,14.758-24.773,28.199-28.461C155.859,144,256,144,256,144s100.141,0,125.176,6.852
	c13.703,3.688,24.508,14.496,28.199,28.199C416.227,204.086,415.961,256.262,415.961,256.262z"/>
</svg>
